<?xml version="1.0" encoding="UTF-8"?>
<svg id="Layer_1" xmlns="http://www.w3.org/2000/svg" version="1.1" viewBox="0 0 500 500">
  <!-- Generator: Adobe Illustrator 30.0.0, SVG Export Plug-In . SVG Version: 2.1.1 Build 123)  -->
  <defs>
    <style>
      .st0 {
        fill: #60bf84;
      }

      .st1 {
        fill: #023c2c;
      }

      .st2 {
        display: none;
      }
    </style>
  </defs>
  <g class="st2">
    <path class="st1" d="M426.38,171.72c-1.68.27-36.95,42.52-36.95,42.52,3.81,2.26,27.36,2.83,36.08.62,8.73-2.21,10.68-8.62,10.76-10.24.08-1.62-6.08-8.45-8.09-11.69-2.02-3.24.93-5.67,3.47-13.44,2.54-7.77-3.6-8.04-5.28-7.77Z"/>
    <path class="st1" d="M482.4,283.63l-6.04-33.42c1.16-.84,2.69-1.88,4.28-2.96,4.09-2.77,7.51-5.14,10.02-7.3,5.67-3.89,10.34-9.73,9.16-18.78-.83-6.33-8.14-15.71-25.89-37.19-7.5-9.08-18.31-22.17-21.93-28.25l.12-.12-1.05-4.09c-3.67-14.38-11.55-27.14-23.91-38.92,4.61-14.21.59-30.55-11.41-40.88-2.78-2.38-5.8-4.43-8.98-6.2,0,0-5.72-3.07-11.13-4.58-5.41-1.5-11.12-2.24-11.12-2.24-3.89-.32-7.81-.23-11.66.33-9.14,1.3-17.83,5.24-24.94,11.02-.17-.08-.33-.17-.5-.24-34.64-14.38-73.46-16.11-109.3-4.86-29.93,9.39-56.2,27.13-75.97,51.31-19.26,23.56-31.4,51.94-35.11,82.07-.16,1.27-.05,2.5.27,3.66l-118.34,29.96c-4.43,1.12-7.71,4.77-8.35,9.3-.64,4.53,1.5,8.94,5.44,11.24l9.8,5.73c8.75,5.11,18.5,7.73,28.39,7.73,4.65,0,9.32-.58,13.94-1.75l3.41-.86,14.28,10.1c5.11,3.61,10.9,5.95,16.93,6.92.16.14.33.27.51.4l14.54,10.22c6.9,4.85,15.04,7.37,23.3,7.37.11,0,.22,0,.32,0l11.28,7.83c6.87,4.76,14.92,7.24,23.09,7.24,3.51,0,7.05-.46,10.52-1.39l8.24-2.21c5.34-1.43,10.08-4.68,13.35-9.14l7.97-10.89c.92,2.77,2.05,5.54,3.26,8.36-15.47,22.57,2.34,49.18,2.34,49.18,3.04,4.98,7.16,9.29,12.1,12.38-1.63,12.5,2.31,25.61,10.76,34.76,10.18,11.02,26.52,15.69,40.67,11.62,3.03-.85,5.92-2.1,8.62-3.68.33-.2.64-.44.97-.64l13.56-14.28c2.36-4.23,3.97-8.86,4.52-13.69.33-2.88.31-5.61.28-8.25-.03-3.04-.06-5.92.54-8.32.51-2.1,1.59-4.32,2.74-6.68,1.59-3.27,3.39-6.97,4.15-11.29.35-1.87.44-3.83.3-5.82,2.29-1.5,4.42-3.25,6.19-5.36,4.4-5.25,6.53-11.86,5.83-18.15-.73-6.07-3.79-10.71-6.5-14.8-1.74-2.63-3.38-5.1-4.01-7.42-1.29-4.79,1.51-10.29,4.56-13.83,3.22-3.77,7.42-6.88,11.86-10.16,1.46-1.08,2.92-2.16,4.35-3.27,11.72-9.08,19.52-18.56,23.86-28.98,2.57-6.21,3.71-12.94,3.43-19.45,1.03-.56,2.06-1.09,3.06-1.77,9.03-6.12,15.36-16.66,16.96-28.22.67-4.6.56-9.38-.17-14.24,5.13-1.42,10.23-3.62,14.35-8.03,5.82-6.19,7.27-14.43,8.16-21.65.08-.64.12-1.21.19-1.83,2.39-.5,5.13-1.28,8.18-3.07,2.54-1.49,5.31-3.74,8.26-7.05,7.4,7.63,12.54,15.68,15.58,24.35-.68,7.29,4.12,13.04,9.26,20.54,4.3,5.83,10.27,13.13,18.08,22.59,7.76,9.39,19.13,23.16,22.02,28.58-.05.04-.11.07-.16.11-2.91,2.44-12.66,11.78-17.9,16.81-1.35,1.3-2.52,2.42-2.66,2.54l-1.83,1.58c-.83.71-1.23,1.81-1.05,2.89l2.53,15.39c-4.89,5.46-15.17,17.78-15.17,17.78,1.82,1.08,13.08,1.35,17.26.3.51-.13.98-.29,1.4-.47l1.96,11.15c.13.74.52,1.4,1.09,1.88l1.2.99s.04.03.06.05c.94.77,5.05,4.37,7.17,7.3.65.9,2.14,4.3,3.42,9.06,1.51,5.64,1.46,8.55,1.23,9.29-1.12,3.48-3.02,5.67-7,8.02-.13.05-.27.11-.43.18-.26.11-.55.23-.88.36l-.13.06c-2.42,1.01-6.88,2.87-12.73,5.1,0,0,0-.02-.01-.03-.77.3-1.54.61-2.33.91-3.67,1.37-7.8,2.85-12.25,4.34-27.14,8.67-62.38,13.32-91.88-9.48l-9.29,12.01c.17.13.34.26.51.39,0,.07.02.14.09.21,9.39,8.87,61.52,35.2,69.92,43.15-5.65,14.6-2.47,29.18.78,38.8-34.57-6.45-124.4-19.29-172.29,10.73l8.07,12.86c53.41-33.55,173.46-6.24,174.66-5.96l15.27,3.54-6.69-14.18c-8.22-17.4-6.13-59.36,7.74-72.96,8.04-3.78,18.57-7.78,30.18-13.18,1.76-.7,3.29-1.33,4.57-1.87.45-.19,1.12-.52,2.02-.97.43-.21.82-.41,1.01-.49.06-.02.11-.05.17-.07l.42-.2s.1-.05.15-.07c7.46-3.98,12.03-9.29,14.39-16.72,2.94-9.27-3.4-26.85-6.77-31.49-2.28-3.14-5.52-6.27-7.68-8.21ZM105.61,265.26c-7.3,1.85-15,.41-21.15-3.93l-3.92-2.78,69.71-17.65c5.06-1.28,10.38-.8,15.08,1.2l-9.64,9.21c-1.18,1.13-2.65,1.94-4.24,2.34l-45.84,11.6ZM137.49,282.72c-7.27,1.84-14.95.42-21.08-3.89l-1.05-.74,39.73-10.06c4.06-1.03,7.82-3.1,10.85-6l11.17-10.67,5.91,5.82-12.65,15.31c-1.3,1.57-3.03,2.66-5,3.16l-27.88,7.06ZM185.99,291.91c-1.28,1.74-3.13,3.01-5.22,3.57l-8.24,2.21c-7.07,1.9-14.56.69-20.67-3.3l17.15-4.34c5.05-1.28,9.48-4.08,12.8-8.09l16.45-19.89,9.4.26-21.66,29.59ZM193.93,247.1l-10.87-10.71c-9.53-9.38-23.49-13.16-36.45-9.89l-92.05,23.3c-10.64,2.69-21.72,1.13-31.2-4.41l-2.13-1.24,138.31-35.01c7.94-2.01,16.22.17,22.14,5.83l34.22,32.72-21.97-.6ZM189.61,202.2c-9.42-7.68-21.8-10.46-33.72-7.44l-9.66,2.44c3.74-25.3,14.25-49.09,30.52-68.99,17.44-21.32,40.61-36.97,67.01-45.26,29.97-9.4,62.29-8.52,91.59,2.4-4.16,7.97-5.91,17.17-5.13,26.21-4.55,1.13-8.97,2.81-13.01,5.17-13.31,7.79-22.68,22.15-24.48,37.47-.77,6.62-.05,13.37,1.84,19.78-9.42.91-18.8,5.34-25.79,12.82-1.42,1.52-2.73,3.14-3.94,4.86-.17.17-.35.35-.53.54-27.89,29.13-68.44,12.77-74.71,9.99ZM292.64,343.93c-1.37,2.84-2.94,6.05-3.82,9.7-1.05,4.24-1.01,8.41-.97,12.09.02,2.27.05,4.41-.18,6.36-1.01,8.8-8.02,16.96-16.75,19.42-8.66,2.49-19.08-.53-25.36-7.32-6.34-6.87-8.71-17.27-6.03-26.49l1.95-6.69-6.5-2.51c-7.79-3.01-13.56-11.28-13.72-19.67-.02-1,.13-2.01.27-3.01,4.39,5.95,10.51,10.79,17.68,13.66,8.43,3.41,17.83,3.95,26.32,1.71-.25,1.58-.66,3.11-1.38,4.47-.75,1.43-1.83,2.95-2.97,4.55-2.97,4.18-6.65,9.37-6.65,16.21,0,8.56,6.29,16.31,14.6,18.02l3.07-14.87c-1.26-.26-2.49-1.83-2.49-3.17,0-1.98,1.87-4.62,3.85-7.41,1.37-1.94,2.79-3.94,4.01-6.23,2.99-5.64,4.04-12.17,3.1-18.62,3.7,2.21,7.87,3.63,12.2,3.98.75.07,1.5.01,2.26.01-.56,1.84-1.49,3.77-2.48,5.79ZM408.67,115.3c-4.43,5.31-7.01,5.79-10.55,6.45-3.85.71-9.12,1.7-14.29,7.7-5.76,6.68-7.92,9.2-18.91-.04l-9.77,11.62c12.28,10.33,21.41,11.11,28.67,7.79-.14.17-.23.41-.38.57-2.88,3.04-8.18,4.12-13.83,5.25-2.02.41-4.04.81-6,1.31-9.08,2.3-16.07,6.42-20.79,12.19-6.42,7.98-7.7,18.74-3.22,26.82l13.28-7.36c-1.45-2.61-.7-6.87,1.73-9.89,2.74-3.35,7.03-5.28,10.73-6.44.35,2.97.36,5.86-.04,8.64-1.03,7.41-4.91,14.04-10.41,17.75-2.01,1.38-4.56,2.49-7.23,3.69-3.64,1.63-7.76,3.5-11.45,6.37-4.51,3.44-7.84,8-10.78,12.01-3.27,4.47-6.1,8.34-9.81,10.09-2.68,1.27-6.26,1.61-11.31,1.08-1.73-.2-3.5-.47-5.27-.74-3.47-.53-7.06-1.08-10.85-1.18-8.01-.17-14.84,1.92-19.79,6.05-7.08,5.92-9.42,15.7-5.56,23.27l13.52-6.9c-.52-1.03.15-3.36,1.77-4.71,2.63-2.2,6.73-2.59,9.7-2.52,2.79.07,5.76.53,8.91,1.01,1.97.3,3.94.6,5.93.82,5.05.53,12.49.84,19.43-2.45.73-.34,1.43-.71,2.11-1.11,5.98-3.5,9.93-8.91,13.47-13.74,2.21-3.02,4.33-5.85,6.69-7.97-.38,1.67-.86,3.33-1.53,4.94-3.29,7.9-9.55,15.37-19.13,22.79-1.34,1.04-2.72,2.05-4.09,3.07-4.93,3.64-10.03,7.42-14.35,12.48-7.22,8.39-10.1,18.75-7.69,27.68,1.27,4.69,3.79,8.48,6,11.84,2.03,3.07,3.79,5.72,4.08,8.16.23,2.09-.65,4.6-2.38,6.65-2.67,3.21-7.05,5.02-11.16,4.66-1.68-.14-3.29-.7-4.8-1.46,1.71-3.55,2.85-7.33,3.23-11.2.56-5.68-.34-10.92-1.21-15.99-.37-2.19-.76-4.39-.98-6.59-.61-5.88.57-10.54,3.17-12.49l-9.12-12.14c-7.01,5.27-10.34,14.81-9.15,26.19.26,2.52.69,5.06,1.12,7.6.73,4.26,1.42,8.29,1.06,11.93-.65,6.59-5.15,12.88-11.43,16.04-6.26,3.14-14.17,3.33-21.16.5-5.16-2.06-9.48-5.58-12.19-9.92-2.76-4.42-3.82-9.69-2.91-14.48l.93-4.87-4.08-2.81c-5.86-4.03-8.82-13.04-6.47-19.65,1.27-3.61,4.02-6.72,7.43-8.69,2.68,8.54,7.91,16.27,15.31,21.61l8.89-12.31c-8.85-6.4-13.1-18.65-10.11-29.15,2.42-8.45,9.44-15.32,17.76-18.1l10.7-.26c-.28-11.87,3.27-22.65,9.74-29.57,5.94-6.36,14.72-9.29,22.16-7.8,1.76,2.47,3.69,4.83,5.88,6.93l10.49-10.98c-7.78-7.43-11.83-18.68-10.58-29.36,1.24-10.68,7.78-20.69,17.06-26.13,9.29-5.44,21.22-6.24,31.14-2.11l5.84-14.01c-5.23-2.18-10.86-3.39-16.54-3.67-.51-6.33.77-12.74,3.78-18.24,5.12-9.41,15.05-16.21,25.92-17.75,10.77-1.58,22.29,1.85,30.83,9.17,9.48,8.16,10.75,22.55,2.82,32.06Z"/>
  </g>
  <path class="st0" d="M380.21,71.89c-95.48-43.17-207.09-6.36-259.24,81.86l-101.35,1.22h0c-8.09.1-15.25,5.02-18.22,12.55s-1.12,16.01,4.72,21.62l16.27,15.62c20.57,19.73,47.48,30.55,75.93,30.55.45,0,.9,0,1.35,0l8.11-.1,23.62,26.98c8.11,9.27,18.18,16.34,29.3,20.87.31.46.6.93.97,1.36l23.34,26.49c11.05,12.54,25.68,21.07,41.68,24.61l18.67,20.93c14.87,16.68,36.02,26.13,58.29,26.13.68,0,1.36,0,2.04-.03l16.95-.44c10.44-.27,20.57-4.14,28.54-10.89l75.77-64.21c1.41-1.19,2.45-2.65,3.18-4.22,1.77-1.26,3.38-2.8,4.72-4.64,4.97-6.8,5.3-15.73.88-22.86l-51.59-89.47-.31-.51c-13.89-21.58-37.56-34.3-63.16-33.97l-170.06,2.05c48.66-68.09,140.33-94.79,219.43-59.03,102.91,46.54,140.58,178.92,66.73,274.52-11.93,15.44-26.52,28.65-43.01,39.07-53.14,33.58-116.25,37.63-171.28,12.75-61.16-27.66-101.2-86.56-105.04-152.72-.49-8.42-7.26-15.1-15.69-15.3l-9.21-.23c-2.01,82.05,45.01,156.91,119.78,190.72,26.81,12.12,55.29,18.21,83.85,18.21,28.58,0,57.25-6.1,84.37-18.34,38.83-17.54,71.24-46.96,92.37-83.95,60.38-105.69,15.59-238.22-92.71-287.19ZM149.96,245.92l-9.74-11.12,148.07-1.78c12.12-.1,23.82,4.32,32.84,12.06l-25.93,15.07c-3.17,1.84-6.79,2.84-10.46,2.89l-93.92,1.13c-15.65.13-30.55-6.46-40.87-18.24ZM203.53,294.59l-5.16-5.85,86.68-1.04c7.92-.09,15.72-2.25,22.56-6.22l28.56-16.6,11.13,17.86-33.32,25.02c-3.65,2.74-7.98,4.21-12.55,4.27l-57.14.69c-.22,0-.43,0-.65,0-15.35,0-29.94-6.58-40.11-18.12ZM335.25,352.4c-3.69,3.13-8.39,4.92-13.23,5.05l-16.95.44c-15.77.38-30.8-6.1-41.29-17.86l-2.55-2.86,40.5-.49c9.83-.12,19.19-3.3,27.06-9.21l42.32-31.77,24.17,5.85-60.01,50.85ZM320.99,176c17.04-.15,32.69,8.17,41.97,22.42l46.88,81.29-41.66-10.09-16.44-26.38c-13.6-21.83-38.07-35.25-63.74-34.88l-188.62,2.27c-22.37.25-43.72-8.14-59.91-23.67l-7.79-7.47,289.31-3.48Z"/>
</svg>