<?xml version="1.0" encoding="UTF-8"?>
<svg id="Layer_1" xmlns="http://www.w3.org/2000/svg" version="1.1" viewBox="0 0 1000 1000">
  <!-- Generator: Adobe Illustrator 30.0.0, SVG Export Plug-In . SVG Version: 2.1.1 Build 123)  -->
  <defs>
    <style>
      .st0 {
        fill: #fff;
      }
    </style>
  </defs>
  <path class="st0" d="M917.61,409.85h-94.8l-30.51,173-22.74-173h-107.82l-69.15,143.22h-68.5c-10.62,20.92-28.69,25.75-42.52,25.75-28.2,0-42.96-20.38-38.66-49.89l2.25-15.45c4.16-28.53,23.47-46.99,49.6-46.99,16.41,0,36.73,6.76,39.63,27.36h66.94c3.86-56.32-43.49-88.51-102.39-88.51-44.49,0-75.76,17.55-95.66,43.64l6.79-39.13H39.73L0,635.14h64.18l11.52-65.33h87.42l9.99-56.64h-87.41l8.23-46.67h97.02l31.34-39.35h.15l-36.68,208h189.56l8-44.91c16.13,32.43,51.56,49.73,93.75,49.73,44.84,0,76.23-18.41,96.49-47.47l-20.59,42.64h70.48l15.14-31.86h88.22l4.14,31.86h116.18l15.77-89.47h.2l18.33,42.8h14.93c60.18,0,103.63-36.69,103.63-99.45,0-50.21-37.33-79.17-82.39-79.17ZM259.85,578.5l5.42-31.22h77.67l9.08-49.89h-77.96l5.54-30.9h112.63c-7.47,14.41-12.29,30.43-14.66,46.99l-2.25,15.77c-2.66,18.64-1.33,35.1,3.23,49.24h-118.7ZM662.28,553.39l45.25-95.26h.44l12.36,95.26h-58.05ZM893.79,531.83h-28.45l11.52-65.33h26.59c20.92,0,29.61,14.48,29.61,29.93,0,17.06-10.94,35.4-39.26,35.4Z"/>
</svg>